<svg version="1.2" xmlns="http://www.w3.org/2000/svg" viewBox="0 0 290 110" width="290" height="110">
	<title>mc-logo-yellow-svg</title>
	<defs>
		<clipPath clipPathUnits="userSpaceOnUse" id="cp1">
			<path d="m0 0h290v110h-290z"/>
		</clipPath>
	</defs>
	<style>
		.s0 { fill: #ffd877 } 
	</style>
	<filter id="f0">
		<feFlood flood-color="#fbd214" flood-opacity="1" />
		<feBlend mode="normal" in2="SourceGraphic"/>
		<feComposite in2="SourceAlpha" operator="in" />
	</filter>
	<g id="Clip-Path" clip-path="url(#cp1)" filter="url(#f0)">
		<g id="Layer">
			<path id="Layer" class="s0" d="m254.6 0c29.9 0 36 19.8 35.4 29.7v50.2h-7.9v-50.2c0-8-3.9-23.5-27.5-23.8-23.5-0.2-140.9 0-196.5 0v-5.9z"/>
			<path id="Layer" class="s0" d="m34.4 109.6c-28.3 0-34.7-19.8-34.4-29.7v-48.9h6.9v48.9c0.3 7.9 6.3 23.8 27.5 23.8h201.1v5.9z"/>
			<path id="Layer" class="s0" d="m51.3 86.2h6l13.8-55.4h-6l1.4-5.8h23.1l4.8 31.3h0.8l20.3-31.3h24l-1.4 5.8h-6.1l-13.8 55.4h6l-1.4 5.8h-26.8l1.4-5.8h6.1l12.6-50.2h-1l-8.4 12.9-21.2 32-5.9-32.2-1.8-12.5h-1l-12.5 50h6.1l-1.5 5.8h-19.1z"/>
			<path id="Layer" class="s0" d="m140 93.2q-3.7 0-5.8-2.1-2-2.1-2-4.9 0-1.3 0.3-2.5 0.8-3.2 3.3-5.1 2.5-2.1 6.1-2.1 3.7 0 5.7 2.2 2.1 2 2.1 4.8 0 1.3-0.3 2.5-0.8 3.2-3.3 5.2-2.5 2-6.1 2z"/>
			<path id="Layer" class="s0" d="m180.4 93.2q-4.4 0-8.3-1.3-3.9-1.2-6.9-4-2.9-2.9-4.6-7.4-1.7-4.5-1.7-11.1 0-5 1-10.3 1.1-5.4 3.2-10.5 2.1-5.1 5.2-9.6 3-4.5 7-7.9 4-3.3 8.8-5.2 4.9-2.1 10.6-2.1 5.1 0 7.8 2.1 2.9 2 3.8 4.9h1l1.5-5.8h10.5l-5.2 21.3h-10.6l1-3.9q0.4-2 0.4-3.5 0-4.2-2.7-6.2-2.5-2-6.4-2-6.2 0-10.4 4.8-4.1 4.8-6 12.2-1.6 6.7-2.7 10.9-1 4.1-1.7 6.9-0.6 2.8-0.9 4.6-0.2 1.7-0.2 3.6 0 5.1 2.6 8.5 2.6 3.4 8.1 3.4 3.2 0 5.7-1 2.7-1 4.9-2.6 2.3-1.7 4.2-4 1.9-2.3 3.6-5.1l4.1 2.7q-2.1 3.4-4.9 6.6-2.7 3.2-6.1 5.7-3.4 2.4-7.4 3.8-3.9 1.5-8.3 1.5z"/>
			<path id="Layer" class="s0" d="m217.2 93.2q-3.6 0-5.7-2.1-2-2.1-2-4.9 0-1.3 0.3-2.5 0.7-3.2 3.2-5.1 2.5-2.1 6.2-2.1 3.6 0 5.6 2.2 2.1 2 2.1 4.8 0 1.3-0.2 2.5-0.8 3.2-3.3 5.2-2.5 2-6.2 2z"/>
		</g>
	</g>
</svg>